<svg width="25" height="25" viewBox="0 0 25 25" fill="none" xmlns="http://www.w3.org/2000/svg">
<path d="M5.58036 4.46429H19.4196C20.1608 4.46425 20.874 4.74782 21.4127 5.25686C21.9515 5.76589 22.275 6.46179 22.317 7.20179L22.3214 7.36608V17.6339C22.3215 18.3751 22.0379 19.0883 21.5289 19.627C21.0198 20.1658 20.3239 20.4893 19.5839 20.5313L19.4196 20.5357H5.58036C4.83916 20.5358 4.12604 20.2522 3.58729 19.7432C3.04854 19.2341 2.725 18.5382 2.68303 17.7982L2.67857 17.6339V7.36608C2.67852 6.62489 2.9621 5.91177 3.47113 5.37302C3.98017 4.83427 4.67606 4.51072 5.41607 4.46876L5.58036 4.46429H19.4196H5.58036ZM20.9821 9.73662L12.8089 13.9866C12.7298 14.0278 12.6432 14.0527 12.5542 14.0599C12.4653 14.0671 12.3758 14.0564 12.2911 14.0286L12.1911 13.9866L4.01786 9.73662V17.6339C4.01787 18.0261 4.16533 18.4039 4.43096 18.6923C4.6966 18.9808 5.06098 19.1588 5.45178 19.1911L5.58036 19.1964H19.4196C19.8119 19.1964 20.1898 19.0488 20.4783 18.783C20.7668 18.5172 20.9447 18.1526 20.9768 17.7616L20.9821 17.6339V9.73662ZM19.4196 5.80358H5.58036C5.18822 5.80359 4.81043 5.95105 4.52197 6.21669C4.23351 6.48232 4.05548 6.8467 4.02321 7.23751L4.01786 7.36608V8.22679L12.5 12.6375L20.9821 8.22679V7.36608C20.9821 6.9738 20.8345 6.59589 20.5687 6.30741C20.3029 6.01893 19.9383 5.84099 19.5473 5.80894L19.4196 5.80358Z" fill="black"/>
</svg>
