<svg width="21" height="17" viewBox="0 0 21 17" fill="none" xmlns="http://www.w3.org/2000/svg">
<path d="M3.58036 0.464294H17.4196C18.1608 0.464246 18.874 0.747825 19.4127 1.25686C19.9515 1.76589 20.275 2.46179 20.317 3.20179L20.3214 3.36608V13.6339C20.3215 14.3751 20.0379 15.0883 19.5289 15.627C19.0198 16.1658 18.3239 16.4893 17.5839 16.5313L17.4196 16.5357H3.58036C2.83916 16.5358 2.12604 16.2522 1.58729 15.7432C1.04854 15.2341 0.724997 14.5382 0.683034 13.7982L0.67857 13.6339V3.36608C0.678521 2.62489 0.9621 1.91177 1.47113 1.37302C1.98017 0.834265 2.67606 0.510722 3.41607 0.468759L3.58036 0.464294H17.4196H3.58036ZM18.9821 5.73662L10.8089 9.98662C10.7298 10.0278 10.6432 10.0527 10.5542 10.0599C10.4653 10.0671 10.3758 10.0564 10.2911 10.0286L10.1911 9.98662L2.01786 5.73662V13.6339C2.01787 14.0261 2.16533 14.4039 2.43096 14.6923C2.6966 14.9808 3.06098 15.1588 3.45178 15.1911L3.58036 15.1964H17.4196C17.8119 15.1964 18.1898 15.0488 18.4783 14.783C18.7668 14.5172 18.9447 14.1526 18.9768 13.7616L18.9821 13.6339V5.73662ZM17.4196 1.80358H3.58036C3.18822 1.80359 2.81043 1.95105 2.52197 2.21669C2.23351 2.48232 2.05548 2.8467 2.02321 3.23751L2.01786 3.36608V4.22679L10.5 8.63751L18.9821 4.22679V3.36608C18.9821 2.9738 18.8345 2.59589 18.5687 2.30741C18.3029 2.01893 17.9383 1.84099 17.5473 1.80894L17.4196 1.80358Z" fill="black"/>
</svg>
