<svg width="24" height="24" viewBox="0 0 24 24" fill="none" xmlns="http://www.w3.org/2000/svg">
<path d="M23.1929 6.46292C23.1361 6.32589 23.04 6.20877 22.9167 6.12636C22.7933 6.04396 22.6483 5.99998 22.5 5.99999H19.6478C19.3052 5.40362 18.83 4.89407 18.2589 4.51078C17.6879 4.12749 17.0363 3.88074 16.3546 3.78961C15.6728 3.69849 14.9793 3.76544 14.3276 3.98529C13.6759 4.20513 13.0835 4.57197 12.5963 5.05742C12.1703 5.47293 11.8318 5.96947 11.6005 6.5178C11.3693 7.06613 11.2501 7.65518 11.25 8.25027V8.82008C7.5765 7.83346 5.11144 4.81349 5.08566 4.78142C4.99574 4.66907 4.87539 4.58495 4.73897 4.53912C4.60256 4.49328 4.45584 4.48766 4.31632 4.52292C4.17679 4.55819 4.05036 4.63285 3.95211 4.73799C3.85385 4.84314 3.78793 4.97434 3.76219 5.11592C3.30609 7.62439 3.25622 11.2141 5.60869 14.0705C6.2735 14.8786 7.07841 15.5603 7.98487 16.0831C7.13944 17.2212 5.15259 17.8527 4.35206 18.0148C4.21905 18.0416 4.0958 18.1039 3.99542 18.1952C3.89505 18.2865 3.82132 18.4033 3.78208 18.5332C3.74285 18.6631 3.73958 18.8011 3.77263 18.9327C3.80568 19.0643 3.87381 19.1845 3.96975 19.2804C4.03997 19.3505 5.727 21 9 21C12.3661 21 15.2491 19.78 17.3374 17.4719C19.1204 15.5013 20.171 12.8171 20.2457 10.0649L23.0303 7.28033C23.1352 7.17543 23.2067 7.04178 23.2356 6.89629C23.2645 6.75079 23.2497 6.59998 23.1929 6.46292ZM18.9697 9.21964C18.9 9.28929 18.8448 9.37197 18.8071 9.46297C18.7694 9.55396 18.75 9.65149 18.75 9.74999C18.75 12.2443 17.8297 14.692 16.2251 16.4656C14.4291 18.4507 11.9306 19.5 9 19.5C8.07013 19.5116 7.14744 19.3359 6.28697 18.9832C7.55962 18.4804 9.18994 17.5519 9.71147 15.9872C9.77194 15.8035 9.75944 15.6036 9.67656 15.4289C9.59367 15.2543 9.44675 15.1181 9.26625 15.0488C9.06122 14.97 4.58606 13.1691 5.04188 6.90552C6.363 8.14396 8.76891 9.9718 11.8767 10.4898C11.9842 10.5077 12.0942 10.502 12.1992 10.473C12.3042 10.4441 12.4017 10.3926 12.4848 10.3222C12.5679 10.2518 12.6347 10.1642 12.6805 10.0653C12.7263 9.96652 12.75 9.85891 12.75 9.74999V8.25017C12.7579 7.45033 13.0818 6.68607 13.651 6.12407C14.2201 5.56207 14.9885 5.24793 15.7883 5.25017C16.3655 5.25816 16.9282 5.43214 17.4092 5.75133C17.8902 6.07052 18.2691 6.52142 18.5007 7.05017C18.5591 7.18384 18.6552 7.29759 18.7772 7.37748C18.8993 7.45737 19.0419 7.49995 19.1878 7.49999H20.6893L18.9697 9.21964Z" fill="black"/>
</svg>
