<svg width="21" height="18" viewBox="0 0 21 18" fill="none" xmlns="http://www.w3.org/2000/svg">
<path d="M20.1929 3.46292C20.1361 3.32589 20.04 3.20877 19.9167 3.12636C19.7933 3.04396 19.6483 2.99998 19.5 2.99999H16.6478C16.3052 2.40362 15.83 1.89407 15.2589 1.51078C14.6879 1.12749 14.0363 0.880736 13.3546 0.789613C12.6728 0.69849 11.9793 0.765441 11.3276 0.985286C10.6759 1.20513 10.0835 1.57197 9.59634 2.05742C9.17033 2.47293 8.83175 2.96947 8.60054 3.5178C8.36932 4.06613 8.25013 4.65518 8.25 5.25027V5.82008C4.5765 4.83346 2.11144 1.81349 2.08566 1.78142C1.99574 1.66907 1.87539 1.58495 1.73897 1.53912C1.60256 1.49328 1.45584 1.48766 1.31632 1.52292C1.17679 1.55819 1.05036 1.63285 0.952109 1.73799C0.853855 1.84314 0.787926 1.97434 0.762188 2.11592C0.306095 4.62439 0.256219 8.21408 2.60869 11.0705C3.2735 11.8786 4.07841 12.5603 4.98487 13.0831C4.13944 14.2212 2.15259 14.8527 1.35206 15.0148C1.21905 15.0416 1.0958 15.1039 0.995422 15.1952C0.895048 15.2865 0.821317 15.4033 0.782084 15.5332C0.74285 15.6631 0.739583 15.8011 0.772632 15.9327C0.80568 16.0643 0.873806 16.1845 0.969751 16.2804C1.03997 16.3505 2.727 18 6 18C9.36609 18 12.2491 16.78 14.3374 14.4719C16.1204 12.5013 17.171 9.81711 17.2457 7.06489L20.0303 4.28033C20.1352 4.17543 20.2067 4.04178 20.2356 3.89629C20.2645 3.75079 20.2497 3.59998 20.1929 3.46292ZM15.9697 6.21964C15.9 6.28929 15.8448 6.37197 15.8071 6.46297C15.7694 6.55396 15.75 6.65149 15.75 6.74999C15.75 9.2443 14.8297 11.692 13.2251 13.4656C11.4291 15.4507 8.93062 16.5 6 16.5C5.07013 16.5116 4.14744 16.3359 3.28697 15.9832C4.55962 15.4804 6.18994 14.5519 6.71147 12.9872C6.77194 12.8035 6.75944 12.6036 6.67656 12.4289C6.59367 12.2543 6.44675 12.1181 6.26625 12.0488C6.06122 11.97 1.58606 10.1691 2.04188 3.90552C3.363 5.14396 5.76891 6.9718 8.87672 7.48977C8.98416 7.50767 9.09421 7.50196 9.19922 7.47303C9.30422 7.4441 9.40167 7.39264 9.48478 7.32223C9.56789 7.25183 9.63467 7.16417 9.68047 7.06535C9.72627 6.96652 9.75 6.85891 9.75 6.74999V5.25017C9.75792 4.45033 10.0818 3.68607 10.651 3.12407C11.2201 2.56207 11.9885 2.24793 12.7883 2.25017C13.3655 2.25816 13.9282 2.43214 14.4092 2.75133C14.8902 3.07052 15.2691 3.52142 15.5007 4.05017C15.5591 4.18384 15.6552 4.29759 15.7772 4.37748C15.8993 4.45737 16.0419 4.49995 16.1878 4.49999H17.6893L15.9697 6.21964Z" fill="black"/>
</svg>
